<?xml version="1.0" encoding="utf-8"?>
<!-- Generator: Adobe Illustrator 21.1.0, SVG Export Plug-In . SVG Version: 6.00 Build 0)  -->
<svg version="1.1" id="Layer_1" xmlns="http://www.w3.org/2000/svg" xmlns:xlink="http://www.w3.org/1999/xlink" x="0px" y="0px"
	 viewBox="0 0 62.7 63.8" style="enable-background:new 0 0 62.7 63.8;" xml:space="preserve">
<style type="text/css">
	.st0{fill:#FFFFFF;}
	.st1{clip-path:url(#SVGID_2_);}
	.st2{clip-path:url(#SVGID_4_);fill:#FFFFFF;}
	.st3{clip-path:url(#SVGID_4_);fill:#FEFEFE;}
	.st4{clip-path:url(#SVGID_4_);fill:#FDFDFD;}
	.st5{clip-path:url(#SVGID_4_);fill:#FCFCFC;}
	.st6{clip-path:url(#SVGID_4_);fill:#FBFBFB;}
	.st7{clip-path:url(#SVGID_4_);fill:#FAFAFA;}
	.st8{clip-path:url(#SVGID_4_);fill:#F9F9F9;}
	.st9{clip-path:url(#SVGID_4_);fill:#F8F8F8;}
	.st10{clip-path:url(#SVGID_4_);fill:#F7F7F7;}
	.st11{clip-path:url(#SVGID_4_);fill:#F6F6F6;}
	.st12{clip-path:url(#SVGID_4_);fill:#F5F5F5;}
	.st13{clip-path:url(#SVGID_4_);fill:#F4F4F4;}
	.st14{clip-path:url(#SVGID_4_);fill:#F3F3F3;}
	.st15{clip-path:url(#SVGID_4_);fill:#F2F2F2;}
	.st16{clip-path:url(#SVGID_4_);fill:#F1F1F1;}
	.st17{clip-path:url(#SVGID_4_);fill:#F0F0F0;}
	.st18{clip-path:url(#SVGID_4_);fill:#EFEFEF;}
	.st19{clip-path:url(#SVGID_4_);fill:#EEEEEE;}
	.st20{clip-path:url(#SVGID_4_);fill:#EDEDED;}
	.st21{clip-path:url(#SVGID_4_);fill:#ECECEC;}
	.st22{clip-path:url(#SVGID_4_);fill:#EBEBEB;}
	.st23{clip-path:url(#SVGID_4_);fill:#EAEAEA;}
	.st24{clip-path:url(#SVGID_4_);fill:#E9E9E9;}
	.st25{clip-path:url(#SVGID_4_);fill:#E8E8E8;}
	.st26{clip-path:url(#SVGID_4_);fill:#E7E7E7;}
	.st27{clip-path:url(#SVGID_4_);fill:#E6E6E6;}
	.st28{clip-path:url(#SVGID_4_);fill:#E5E5E5;}
	.st29{clip-path:url(#SVGID_4_);fill:#E4E4E4;}
	.st30{clip-path:url(#SVGID_4_);fill:#E3E3E3;}
	.st31{clip-path:url(#SVGID_4_);fill:#E2E2E2;}
	.st32{clip-path:url(#SVGID_4_);fill:#E1E1E1;}
	.st33{clip-path:url(#SVGID_4_);fill:#E0E0E0;}
	.st34{clip-path:url(#SVGID_4_);fill:#DFDFDF;}
	.st35{clip-path:url(#SVGID_4_);fill:#DEDEDE;}
	.st36{clip-path:url(#SVGID_4_);fill:#DDDDDD;}
	.st37{clip-path:url(#SVGID_4_);fill:#DCDCDC;}
	.st38{clip-path:url(#SVGID_4_);fill:#DBDBDB;}
	.st39{clip-path:url(#SVGID_4_);fill:#DADADA;}
	.st40{clip-path:url(#SVGID_4_);fill:#D9D9D9;}
	.st41{clip-path:url(#SVGID_4_);fill:#D8D8D8;}
	.st42{clip-path:url(#SVGID_4_);fill:#D7D7D7;}
	.st43{clip-path:url(#SVGID_4_);fill:#D6D6D6;}
	.st44{clip-path:url(#SVGID_4_);fill:#D5D5D5;}
	.st45{clip-path:url(#SVGID_4_);fill:#D4D4D4;}
	.st46{clip-path:url(#SVGID_4_);fill:#D3D3D3;}
	.st47{clip-path:url(#SVGID_4_);fill:#D2D2D2;}
	.st48{clip-path:url(#SVGID_4_);fill:#D1D1D1;}
	.st49{clip-path:url(#SVGID_4_);fill:#D0D0D0;}
	.st50{clip-path:url(#SVGID_4_);fill:#CFCFCF;}
	.st51{clip-path:url(#SVGID_4_);fill:#CECECE;}
	.st52{clip-path:url(#SVGID_4_);fill:#CDCDCD;}
	.st53{clip-path:url(#SVGID_4_);fill:#CCCCCC;}
	.st54{clip-path:url(#SVGID_4_);fill:#CBCBCB;}
	.st55{clip-path:url(#SVGID_4_);fill:#CACACA;}
	.st56{clip-path:url(#SVGID_4_);fill:#C9C9C9;}
	.st57{clip-path:url(#SVGID_4_);fill:#C8C8C8;}
	.st58{clip-path:url(#SVGID_4_);fill:#C7C7C7;}
	.st59{clip-path:url(#SVGID_4_);fill:#C6C6C6;}
	.st60{clip-path:url(#SVGID_4_);fill:#C5C5C5;}
	.st61{clip-path:url(#SVGID_4_);fill:#C4C4C4;}
	.st62{clip-path:url(#SVGID_4_);fill:#C3C3C3;}
	.st63{clip-path:url(#SVGID_4_);fill:#C2C2C2;}
	.st64{clip-path:url(#SVGID_4_);fill:#C1C1C1;}
	.st65{clip-path:url(#SVGID_4_);fill:#C0C0C0;}
	.st66{clip-path:url(#SVGID_4_);fill:#BFBFBF;}
	.st67{clip-path:url(#SVGID_4_);fill:#BEBEBE;}
	.st68{clip-path:url(#SVGID_4_);fill:#BDBDBD;}
	.st69{clip-path:url(#SVGID_4_);fill:#BCBCBC;}
	.st70{clip-path:url(#SVGID_4_);fill:#BBBBBB;}
	.st71{clip-path:url(#SVGID_4_);fill:#BABABA;}
	.st72{clip-path:url(#SVGID_4_);fill:#B9B9B9;}
	.st73{clip-path:url(#SVGID_4_);fill:#B8B8B8;}
	.st74{clip-path:url(#SVGID_4_);fill:#B7B7B7;}
	.st75{clip-path:url(#SVGID_4_);fill:#B6B6B6;}
	.st76{clip-path:url(#SVGID_4_);fill:#B5B5B5;}
	.st77{clip-path:url(#SVGID_4_);fill:#B4B4B4;}
	.st78{clip-path:url(#SVGID_4_);fill:#B3B3B3;}
	.st79{clip-path:url(#SVGID_4_);fill:#B2B2B2;}
	.st80{clip-path:url(#SVGID_4_);fill:#B1B1B1;}
	.st81{clip-path:url(#SVGID_4_);fill:#B0B0B0;}
	.st82{clip-path:url(#SVGID_4_);fill:#AFAFAF;}
	.st83{clip-path:url(#SVGID_4_);fill:#AEAEAE;}
	.st84{clip-path:url(#SVGID_4_);fill:#ADADAD;}
	.st85{clip-path:url(#SVGID_4_);fill:#ACACAC;}
	.st86{clip-path:url(#SVGID_4_);fill:#ABABAB;}
	.st87{clip-path:url(#SVGID_4_);fill:#AAAAAA;}
	.st88{clip-path:url(#SVGID_4_);fill:#A9A9A9;}
	.st89{clip-path:url(#SVGID_4_);fill:#A8A8A8;}
	.st90{clip-path:url(#SVGID_4_);fill:#A7A7A7;}
	.st91{clip-path:url(#SVGID_4_);fill:#A6A6A6;}
	.st92{clip-path:url(#SVGID_4_);fill:#A4A4A4;}
	.st93{clip-path:url(#SVGID_4_);fill:#A3A3A3;}
	.st94{clip-path:url(#SVGID_4_);fill:#A2A2A2;}
	.st95{clip-path:url(#SVGID_4_);fill:#A1A1A1;}
	.st96{clip-path:url(#SVGID_4_);fill:#A0A0A0;}
	.st97{clip-path:url(#SVGID_4_);fill:#9F9F9F;}
	.st98{clip-path:url(#SVGID_4_);fill:#9E9E9E;}
	.st99{clip-path:url(#SVGID_4_);fill:#9D9D9D;}
	.st100{clip-path:url(#SVGID_4_);fill:#9C9C9C;}
	.st101{clip-path:url(#SVGID_4_);fill:#9B9B9B;}
	.st102{clip-path:url(#SVGID_4_);fill:#9A9A9A;}
	.st103{clip-path:url(#SVGID_4_);fill:#999999;}
	.st104{clip-path:url(#SVGID_4_);fill:#979797;}
	.st105{clip-path:url(#SVGID_4_);fill:#969696;}
	.st106{clip-path:url(#SVGID_4_);fill:#959595;}
	.st107{clip-path:url(#SVGID_4_);fill:#949494;}
	.st108{clip-path:url(#SVGID_4_);fill:#939393;}
	.st109{clip-path:url(#SVGID_4_);fill:#929292;}
	.st110{clip-path:url(#SVGID_4_);fill:#919191;}
	.st111{clip-path:url(#SVGID_4_);fill:#8F8F8F;}
	.st112{clip-path:url(#SVGID_4_);fill:#8E8E8E;}
	.st113{clip-path:url(#SVGID_4_);fill:#8D8D8D;}
	.st114{clip-path:url(#SVGID_4_);fill:#8C8C8C;}
	.st115{clip-path:url(#SVGID_4_);fill:#8B8B8B;}
	.st116{clip-path:url(#SVGID_4_);fill:#8A8A8A;}
	.st117{clip-path:url(#SVGID_4_);fill:#898989;}
	.st118{clip-path:url(#SVGID_4_);fill:#878787;}
	.st119{clip-path:url(#SVGID_4_);fill:#868686;}
	.st120{clip-path:url(#SVGID_4_);fill:#858585;}
	.st121{clip-path:url(#SVGID_4_);fill:#848484;}
	.st122{clip-path:url(#SVGID_4_);fill:#838383;}
	.st123{clip-path:url(#SVGID_4_);fill:#828282;}
	.st124{clip-path:url(#SVGID_4_);fill:#818181;}
	.st125{clip-path:url(#SVGID_4_);fill:#7F7F7F;}
	.st126{clip-path:url(#SVGID_4_);fill:#7E7E7E;}
	.st127{clip-path:url(#SVGID_4_);fill:#7D7D7D;}
	.st128{clip-path:url(#SVGID_4_);fill:#7C7C7C;}
	.st129{fill:#FC0017;}
</style>
<g>
	<path class="st0" d="M62.3,41.7c0.2-0.6,0.3-1.2,0.4-1.8H47.5L47,40.7c-3.1,5.3-8.9,8.7-15.1,8.7c-9.6,0-17.4-7.8-17.4-17.4
		c0-9.6,7.8-17.4,17.4-17.4c4.8,0,9.5,2,12.8,5.6l1.2,1.3l9.9-10.6l-1.1-1.1c-6-6.2-14.1-9.6-22.8-9.6C14.4,0.1,0.1,14.4,0.1,31.9
		c0,17.6,14.3,31.8,31.8,31.8c13.5,0,25.4-8.4,29.9-21c0.1-0.2,0.2-0.4,0.2-0.7L62.3,41.7z"/>
	<g>
		<defs>
			<path id="SVGID_1_" d="M47.5,39.9L47,40.7c-2.2,3.7-5.6,6.4-9.6,7.8h21.7c1.1-1.8,2-3.7,2.7-5.7c0.1-0.2,0.2-0.4,0.2-0.7l0.1-0.4
				c0.1-0.4,0.2-0.7,0.2-1v-0.8H47.5z"/>
		</defs>
		<clipPath id="SVGID_2_">
			<use xlink:href="#SVGID_1_"  style="overflow:visible;"/>
		</clipPath>
		<g class="st1">
			<g>
				<defs>
					<rect id="SVGID_3_" x="37.7" y="39.9" width="25" height="8.5"/>
				</defs>
				<clipPath id="SVGID_4_">
					<use xlink:href="#SVGID_3_"  style="overflow:visible;"/>
				</clipPath>
				<rect x="37.7" y="48.1" class="st2" width="25" height="0.3"/>
				<polygon class="st2" points="37.7,48.4 62.6,48.4 62.6,48.4 37.7,48.4 				"/>
				<rect x="37.7" y="48.1" class="st2" width="25" height="0.3"/>
				<rect x="37.7" y="48.1" class="st2" width="25" height="0.3"/>
				<rect x="37.7" y="48.1" class="st3" width="25" height="0.3"/>
				<rect x="37.7" y="47.8" class="st3" width="25" height="0.3"/>
				<rect x="37.7" y="47.8" class="st3" width="25" height="0.3"/>
				<polygon class="st4" points="37.7,47.8 62.6,47.8 62.6,47.8 37.7,47.8 				"/>
				<rect x="37.7" y="47.8" class="st4" width="25" height="0.3"/>
				<rect x="37.7" y="47.8" class="st4" width="25" height="0.3"/>
				<rect x="37.7" y="47.5" class="st5" width="25" height="0.3"/>
				<rect x="37.7" y="47.5" class="st5" width="25" height="0.3"/>
				<polygon class="st6" points="37.7,47.5 62.6,47.5 62.6,47.5 37.7,47.5 				"/>
				<rect x="37.7" y="47.5" class="st6" width="25" height="0.3"/>
				<rect x="37.7" y="47.5" class="st6" width="25" height="0.3"/>
				<rect x="37.7" y="47.2" class="st7" width="25" height="0.3"/>
				<rect x="37.7" y="47.2" class="st7" width="25" height="0.3"/>
				<polygon class="st8" points="37.7,47.2 62.6,47.2 62.6,47.2 37.7,47.2 				"/>
				<rect x="37.7" y="47.2" class="st8" width="25" height="0.3"/>
				<rect x="37.7" y="47.2" class="st9" width="25" height="0.3"/>
				<rect x="37.7" y="47" class="st10" width="25" height="0.3"/>
				<rect x="37.7" y="47" class="st10" width="25" height="0.3"/>
				<polygon class="st11" points="37.7,47 62.6,47 62.6,47 37.7,47 				"/>
				<rect x="37.7" y="47" class="st11" width="25" height="0.3"/>
				<rect x="37.7" y="47" class="st12" width="25" height="0.3"/>
				<rect x="37.7" y="46.7" class="st12" width="25" height="0.3"/>
				<rect x="37.7" y="46.7" class="st13" width="25" height="0.3"/>
				<polygon class="st14" points="37.7,47 62.6,47 62.6,47 37.7,47 				"/>
				<rect x="37.7" y="46.7" class="st14" width="25" height="0.3"/>
				<rect x="37.7" y="46.7" class="st15" width="25" height="0.3"/>
				<rect x="37.7" y="46.4" class="st15" width="25" height="0.3"/>
				<rect x="37.7" y="46.4" class="st16" width="25" height="0.3"/>
				<polygon class="st17" points="37.7,46.7 62.6,46.7 62.6,46.7 37.7,46.7 				"/>
				<rect x="37.7" y="46.4" class="st17" width="25" height="0.3"/>
				<rect x="37.7" y="46.4" class="st18" width="25" height="0.3"/>
				<rect x="37.7" y="46.1" class="st19" width="25" height="0.3"/>
				<rect x="37.7" y="46.1" class="st19" width="25" height="0.3"/>
				<polygon class="st20" points="37.7,46.4 62.6,46.4 62.6,46.4 37.7,46.4 				"/>
				<rect x="37.7" y="46.1" class="st21" width="25" height="0.3"/>
				<rect x="37.7" y="46.1" class="st21" width="25" height="0.3"/>
				<rect x="37.7" y="45.8" class="st22" width="25" height="0.3"/>
				<rect x="37.7" y="45.8" class="st23" width="25" height="0.3"/>
				<polygon class="st24" points="37.7,46.1 62.6,46.1 62.6,46.1 37.7,46.1 				"/>
				<rect x="37.7" y="45.8" class="st24" width="25" height="0.3"/>
				<rect x="37.7" y="45.8" class="st25" width="25" height="0.3"/>
				<rect x="37.7" y="45.5" class="st26" width="25" height="0.3"/>
				<rect x="37.7" y="45.5" class="st26" width="25" height="0.3"/>
				<polygon class="st27" points="37.7,45.8 62.6,45.8 62.6,45.8 37.7,45.8 				"/>
				<rect x="37.7" y="45.5" class="st28" width="25" height="0.3"/>
				<rect x="37.7" y="45.5" class="st29" width="25" height="0.3"/>
				<rect x="37.7" y="45.2" class="st30" width="25" height="0.3"/>
				<rect x="37.7" y="45.2" class="st30" width="25" height="0.3"/>
				<rect x="37.7" y="45.2" class="st31" width="25" height="0.3"/>
				<polygon class="st32" points="37.7,45.2 62.6,45.2 62.6,45.2 37.7,45.2 				"/>
				<rect x="37.7" y="45.2" class="st33" width="25" height="0.3"/>
				<rect x="37.7" y="45.2" class="st34" width="25" height="0.3"/>
				<rect x="37.7" y="45" class="st34" width="25" height="0.3"/>
				<rect x="37.7" y="45" class="st35" width="25" height="0.3"/>
				<polygon class="st36" points="37.7,45 62.6,45 62.6,45 37.7,45 				"/>
				<rect x="37.7" y="45" class="st37" width="25" height="0.3"/>
				<rect x="37.7" y="45" class="st38" width="25" height="0.3"/>
				<rect x="37.7" y="44.7" class="st39" width="25" height="0.3"/>
				<rect x="37.7" y="44.7" class="st39" width="25" height="0.3"/>
				<polygon class="st40" points="37.7,44.7 62.6,44.7 62.6,44.7 37.7,44.7 				"/>
				<rect x="37.7" y="44.7" class="st41" width="25" height="0.3"/>
				<rect x="37.7" y="44.7" class="st42" width="25" height="0.3"/>
				<rect x="37.7" y="44.4" class="st43" width="25" height="0.3"/>
				<rect x="37.7" y="44.4" class="st44" width="25" height="0.3"/>
				<polygon class="st44" points="37.7,44.4 62.6,44.4 62.6,44.4 37.7,44.4 				"/>
				<rect x="37.7" y="44.4" class="st45" width="25" height="0.3"/>
				<rect x="37.7" y="44.4" class="st46" width="25" height="0.3"/>
				<rect x="37.7" y="44.1" class="st47" width="25" height="0.3"/>
				<rect x="37.7" y="44.1" class="st48" width="25" height="0.3"/>
				<polygon class="st49" points="37.7,44.1 62.6,44.1 62.6,44.1 37.7,44.1 				"/>
				<rect x="37.7" y="44.1" class="st50" width="25" height="0.3"/>
				<rect x="37.7" y="44.1" class="st51" width="25" height="0.3"/>
				<rect x="37.7" y="43.8" class="st52" width="25" height="0.3"/>
				<rect x="37.7" y="43.8" class="st52" width="25" height="0.3"/>
				<polygon class="st53" points="37.7,44.1 62.6,44.1 62.6,44.1 37.7,44.1 				"/>
				<rect x="37.7" y="43.8" class="st54" width="25" height="0.3"/>
				<rect x="37.7" y="43.8" class="st55" width="25" height="0.3"/>
				<rect x="37.7" y="43.5" class="st56" width="25" height="0.3"/>
				<rect x="37.7" y="43.5" class="st57" width="25" height="0.3"/>
				<polygon class="st58" points="37.7,43.8 62.6,43.8 62.6,43.8 37.7,43.8 				"/>
				<rect x="37.7" y="43.5" class="st59" width="25" height="0.3"/>
				<rect x="37.7" y="43.5" class="st60" width="25" height="0.3"/>
				<rect x="37.7" y="43.3" class="st61" width="25" height="0.3"/>
				<rect x="37.7" y="43.3" class="st62" width="25" height="0.3"/>
				<polygon class="st63" points="37.7,43.5 62.6,43.5 62.6,43.5 37.7,43.5 				"/>
				<rect x="37.7" y="43.3" class="st64" width="25" height="0.3"/>
				<rect x="37.7" y="43.3" class="st65" width="25" height="0.3"/>
				<rect x="37.7" y="43" class="st66" width="25" height="0.3"/>
				<rect x="37.7" y="43" class="st67" width="25" height="0.3"/>
				<polygon class="st68" points="37.7,43.3 62.6,43.3 62.6,43.3 37.7,43.3 				"/>
				<rect x="37.7" y="43" class="st69" width="25" height="0.3"/>
				<rect x="37.7" y="43" class="st70" width="25" height="0.3"/>
				<rect x="37.7" y="42.7" class="st71" width="25" height="0.3"/>
				<rect x="37.7" y="42.7" class="st72" width="25" height="0.3"/>
				<polygon class="st73" points="37.7,43 62.6,43 62.6,43 37.7,43 				"/>
				<rect x="37.7" y="42.7" class="st74" width="25" height="0.3"/>
				<rect x="37.7" y="42.7" class="st75" width="25" height="0.3"/>
				<rect x="37.7" y="42.7" class="st76" width="25" height="0.3"/>
				<rect x="37.7" y="42.4" class="st77" width="25" height="0.3"/>
				<rect x="37.7" y="42.4" class="st78" width="25" height="0.3"/>
				<polygon class="st79" points="37.7,42.4 62.6,42.4 62.6,42.4 37.7,42.4 				"/>
				<rect x="37.7" y="42.4" class="st80" width="25" height="0.3"/>
				<rect x="37.7" y="42.4" class="st81" width="25" height="0.3"/>
				<rect x="37.7" y="42.1" class="st82" width="25" height="0.3"/>
				<rect x="37.7" y="42.1" class="st83" width="25" height="0.3"/>
				<polygon class="st84" points="37.7,42.1 62.6,42.1 62.6,42.1 37.7,42.1 				"/>
				<rect x="37.7" y="42.1" class="st85" width="25" height="0.3"/>
				<rect x="37.7" y="42.1" class="st86" width="25" height="0.3"/>
				<rect x="37.7" y="41.8" class="st87" width="25" height="0.3"/>
				<rect x="37.7" y="41.8" class="st88" width="25" height="0.3"/>
				<polygon class="st89" points="37.7,41.8 62.6,41.8 62.6,41.8 37.7,41.8 				"/>
				<rect x="37.7" y="41.8" class="st90" width="25" height="0.3"/>
				<rect x="37.7" y="41.8" class="st91" width="25" height="0.3"/>
				<rect x="37.7" y="41.6" class="st92" width="25" height="0.3"/>
				<rect x="37.7" y="41.6" class="st93" width="25" height="0.3"/>
				<polygon class="st94" points="37.7,41.6 62.6,41.6 62.6,41.6 37.7,41.6 				"/>
				<rect x="37.7" y="41.6" class="st95" width="25" height="0.3"/>
				<rect x="37.7" y="41.6" class="st96" width="25" height="0.3"/>
				<rect x="37.7" y="41.3" class="st97" width="25" height="0.3"/>
				<rect x="37.7" y="41.3" class="st98" width="25" height="0.3"/>
				<polygon class="st99" points="37.7,41.6 62.6,41.6 62.6,41.6 37.7,41.6 				"/>
				<rect x="37.7" y="41.3" class="st100" width="25" height="0.3"/>
				<rect x="37.7" y="41.3" class="st101" width="25" height="0.3"/>
				<rect x="37.7" y="41" class="st102" width="25" height="0.3"/>
				<rect x="37.7" y="41" class="st103" width="25" height="0.3"/>
				<polygon class="st104" points="37.7,41.3 62.6,41.3 62.6,41.3 37.7,41.3 				"/>
				<rect x="37.7" y="41" class="st105" width="25" height="0.3"/>
				<rect x="37.7" y="41" class="st106" width="25" height="0.3"/>
				<rect x="37.7" y="40.7" class="st107" width="25" height="0.3"/>
				<rect x="37.7" y="40.7" class="st108" width="25" height="0.3"/>
				<polygon class="st109" points="37.7,41 62.6,41 62.6,41 37.7,41 				"/>
				<rect x="37.7" y="40.7" class="st110" width="25" height="0.3"/>
				<rect x="37.7" y="40.7" class="st111" width="25" height="0.3"/>
				<rect x="37.7" y="40.4" class="st112" width="25" height="0.3"/>
				<rect x="37.7" y="40.4" class="st113" width="25" height="0.3"/>
				<polygon class="st114" points="37.7,40.7 62.6,40.7 62.6,40.7 37.7,40.7 				"/>
				<rect x="37.7" y="40.4" class="st115" width="25" height="0.3"/>
				<rect x="37.7" y="40.4" class="st116" width="25" height="0.3"/>
				<rect x="37.7" y="40.1" class="st117" width="25" height="0.3"/>
				<rect x="37.7" y="40.1" class="st118" width="25" height="0.3"/>
				<polygon class="st119" points="37.7,40.4 62.6,40.4 62.6,40.4 37.7,40.4 				"/>
				<rect x="37.7" y="40.1" class="st120" width="25" height="0.3"/>
				<rect x="37.7" y="40.1" class="st121" width="25" height="0.3"/>
				<rect x="37.7" y="39.9" class="st122" width="25" height="0.3"/>
				<rect x="37.7" y="39.9" class="st123" width="25" height="0.3"/>
				<rect x="37.7" y="39.9" class="st124" width="25" height="0.3"/>
				<polygon class="st125" points="37.7,39.9 62.6,39.9 62.6,39.9 37.7,39.9 				"/>
				<rect x="37.7" y="39.9" class="st126" width="25" height="0.3"/>
				<rect x="37.7" y="39.9" class="st127" width="25" height="0.3"/>
				<rect x="37.7" y="39.6" class="st128" width="25" height="0.3"/>
			</g>
		</g>
	</g>
	<path class="st129" d="M62.4,36.3c-1.6-5.4-6.6-9.4-12.5-9.4H27.6c0,7.2,5.8,13,13,13h18.7c0,0,0.7,0,1.3,0.2
		c0.9,0.3,1.8,1.1,1.4,2.6c0.1-0.2,0.2-0.4,0.2-0.7l0.1-0.4c0.2-0.6,0.3-1.1,0.4-1.7C62.8,38.4,62.6,37.1,62.4,36.3"/>
</g>
</svg>
