<?xml version="1.0" encoding="utf-8"?>
<!-- Generator: Adobe Illustrator 21.1.0, SVG Export Plug-In . SVG Version: 6.00 Build 0)  -->
<svg version="1.1" id="Слой_3__x28_копия_x29_"
	 xmlns="http://www.w3.org/2000/svg" xmlns:xlink="http://www.w3.org/1999/xlink" x="0px" y="0px" viewBox="0 0 21.2 23.9"
	 style="enable-background:new 0 0 21.2 23.9;" xml:space="preserve">
<style type="text/css">
	.st0{fill:#FF002E;}
</style>
<path class="st0" d="M16,10.7V4.4C16,3.2,15,0,10.6,0l0,0l0,0l0,0l0,0C6.2,0,5.2,3.2,5.2,4.4v6.3h3V4.5C8.2,4.1,8.5,3,10.6,3
	S13,4.1,13,4.5v6.2H16z"/>
<polygon class="st0" points="20.1,5.2 17,5.2 17,8.2 17.2,8.2 18,20.9 10.6,20.9 10.5,20.9 3.2,20.9 4,8.2 4.2,8.2 4.2,5.2 1.1,5.2 
	0,23.9 10.5,23.9 10.6,23.9 21.2,23.9 "/>
</svg>
