<?xml version="1.0" encoding="utf-8"?>
<!-- Generator: Adobe Illustrator 21.1.0, SVG Export Plug-In . SVG Version: 6.00 Build 0)  -->
<svg version="1.1" id="Слой_3" xmlns="http://www.w3.org/2000/svg" xmlns:xlink="http://www.w3.org/1999/xlink" x="0px" y="0px"
	 viewBox="0 0 23.8 23.8" style="enable-background:new 0 0 23.8 23.8;" xml:space="preserve">
<style type="text/css">
	.st0{fill:#FF002E;}
</style>
<path class="st0" d="M19.8,3c0.3,0,0.5,0.1,0.7,0.3c0.4,0.4,0.4,1,0,1.4L8.4,16.9c-0.2,0.2-0.5,0.3-0.7,0.3S7.2,17.1,7,16.9
	c-0.4-0.4-0.4-1,0-1.4L19.1,3.3C19.3,3.1,19.6,3,19.8,3 M19.8,0c-1.1,0-2.1,0.4-2.8,1.2L4.8,13.3c-1.6,1.6-1.6,4.1,0,5.7
	c0.8,0.8,1.8,1.2,2.8,1.2s2.1-0.4,2.8-1.2L22.7,6.8C23.5,6,23.9,5,23.9,4c0-1.1-0.4-2.1-1.2-2.8S20.9,0,19.8,0L19.8,0z"/>
<path class="st0" d="M4.9,23.8H0v-4.6c0-0.8,0.7-1.5,1.5-1.5S3,18.3,3,19.1v1.6h1.9c0.8,0,1.5,0.7,1.5,1.5S5.7,23.8,4.9,23.8z"/>
</svg>
