<svg width="31" height="25" viewBox="0 0 31 25" fill="none" xmlns="http://www.w3.org/2000/svg">
<path fill-rule="evenodd" clip-rule="evenodd" d="M1.71913 9.3302e-09L24.3543 0V3.16753C25.5764 4.14276 26.36 5.64837 26.36 7.33779C26.36 9.0272 25.5764 10.5328 24.3543 11.508V14.9633H1.71913L1.71913 11.2623C0.662463 10.2891 1.43929e-06 8.89116 0 7.33779C-1.43928e-06 5.78442 0.662461 4.38644 1.71913 3.41327L1.71913 9.3302e-09Z" transform="matrix(0.965603 -0.260021 0.257622 0.966246 -1 6.85414)" fill="#FF002E"/>
<path fill-rule="evenodd" clip-rule="evenodd" d="M6.71901 16.2261L22.0106 20.3439L22.9641 16.7678C24.2351 16.1022 25.2349 14.9237 25.6351 13.4227C26.0353 11.9218 25.7558 10.3988 24.9862 9.18367L25.8655 5.88562L23.1803 5.16254C23.0376 5.91612 22.7772 6.63807 22.4145 7.30202L23.583 11.6849L6.71901 16.2261ZM3.01843 15.2296L0.15402 14.4583L1.04418 11.1196C0.115389 9.85953 -0.253361 8.20098 0.18187 6.56859C0.6171 4.9362 1.76161 3.68515 3.19288 3.06061L4.0089 0L21.323 4.66241C21.1865 5.50821 20.8483 6.30468 20.3468 6.98499L21.237 10.3237L3.01843 15.2296Z" transform="translate(5.1345 4.65611)" fill="#FF002E"/>
</svg>
