<?xml version="1.0" encoding="utf-8"?>
<!-- Generator: Adobe Illustrator 21.1.0, SVG Export Plug-In . SVG Version: 6.00 Build 0)  -->
<svg version="1.1" id="Слой_6__x28_копия_x29_"
	 xmlns="http://www.w3.org/2000/svg" xmlns:xlink="http://www.w3.org/1999/xlink" x="0px" y="0px" viewBox="0 0 14.6 21.6"
	 style="enable-background:new 0 0 14.6 21.6;" xml:space="preserve">
<style type="text/css">
	.st0{fill:#FF002E;}
</style>
<path class="st0" d="M7.1,2.6c2.5,0,4.5,2.1,4.5,4.5c0,0,0.2,5.6-4.5,11.7c0,0,0,0-0.1,0l0,0C2.4,12.9,2.6,7.4,2.6,7.1l0,0
	C2.6,4.7,4.7,2.6,7.1,2.6 M7.1,0C3.2,0,0,3.2,0,7.1v0.1c0,1.1,0.2,7,5.1,13.3l0.1,0.1l0.1,0.1c0.5,0.5,1.2,0.8,2,0.8
	s1.3-0.2,1.9-0.8l0.2-0.2l0.2-0.2c5.1-6.5,5.1-12.5,5.1-13.3C14.4,3.2,11.2,0,7.1,0L7.1,0z"/>
</svg>
